<svg width="459" height="255" viewBox="0 0 459 255" fill="none" xmlns="http://www.w3.org/2000/svg">
<rect x="364.5" y="61.5" width="94" height="17" fill="#F7C51E" stroke="black"/>
<rect x="364.5" y="126.5" width="94" height="17" fill="#F7C51E" stroke="black"/>
<rect x="364.5" y="189.5" width="94" height="17" fill="#F7C51E" stroke="black"/>
<path d="M206.312 88.375C206.312 92.4527 205.544 96.3309 204.13 99.8383L217.227 125.845C211.348 133.059 203.807 138.42 195.299 141.129L182.5 115.75H182.277L165.608 149.256C170.941 151.195 176.621 152.25 182.5 152.25C200.037 152.25 215.689 142.925 225.883 128.04C228.612 124.362 233.622 123.478 237.046 126.871C240.469 130.036 241.014 135.768 238.261 139.703C225.189 158.466 204.849 170.5 182.5 170.5C173.719 170.5 165.286 168.675 157.522 165.339L143.47 193.227C142.304 195.537 140.573 197.419 138.492 198.616L124.745 206.515C123.514 207.228 122.053 207.143 120.882 206.316C119.712 205.489 119 204.006 119 202.438V186.64C119 184.245 119.553 181.878 120.602 179.768L135.493 150.225C132.31 147.003 129.378 143.496 126.734 139.703C123.993 135.768 124.541 130.036 127.962 126.871C131.383 123.478 136.378 124.362 139.122 128.04C140.528 130.321 142.036 132.232 143.641 134.029L160.87 99.8383C159.456 96.3309 158.688 92.4527 158.688 88.375C158.688 73.256 169.13 61 182.5 61C195.646 61 206.312 73.256 206.312 88.375ZM182.5 97.5C186.89 97.5 190.438 93.4223 190.438 88.375C190.438 83.3363 186.89 79.25 182.5 79.25C178.11 79.25 174.562 83.3363 174.562 88.375C174.562 93.4223 178.11 97.5 182.5 97.5ZM211.298 173.323C219.583 169.673 227.024 164.569 233.548 158.238L244.388 179.768C245.454 181.878 246 184.245 246 186.64V202.438C246 204.006 245.281 205.489 244.115 206.316C242.949 207.143 241.486 207.228 240.245 206.515L226.504 198.616C224.42 197.419 222.708 195.537 221.518 193.227L211.298 173.323Z" fill="black"/>
<g clip-path="url(#clip0_310_19)">
<path d="M153.931 46.8318L156.323 37.5498L156.323 37.5497C159.381 25.6797 170.905 17.7432 183.387 16.244L187.904 30.3276L188.433 31.9755L188.865 30.2996L193.266 13.2115C193.536 12.162 194.697 11.4919 195.953 11.8155L209.796 15.3813C211.053 15.7049 211.745 16.8521 211.474 17.9016L207.072 34.9925L206.64 36.6692L207.899 35.4809L218.661 25.3258C228.863 32.6724 235.118 45.1928 232.062 57.0587L229.669 66.3407L153.931 46.8318ZM232.662 73.9528L232.663 73.956C232.788 74.6156 232.493 75.2784 231.742 75.627C231.708 75.6414 231.659 75.6638 231.596 75.6932C231.249 75.8541 230.447 76.2253 229.046 76.6504C227.355 77.163 224.813 77.7436 221.283 78.0604C214.223 78.6941 203.204 78.2729 187.138 74.1345C155.01 65.8589 147.74 54.3209 147.523 53.968C147.136 53.3359 147.19 52.588 147.636 52.0486C148.088 51.5056 148.885 51.2518 149.669 51.454L231.17 72.4473C231.961 72.6509 232.535 73.2572 232.662 73.9528Z" fill="#F7C51E" stroke="black"/>
</g>
<path d="M17.4375 207V63H67.7813C77.8125 63 86.0859 64.7344 92.6016 68.2031C99.1172 71.625 103.969 76.2422 107.156 82.0547C110.344 87.8203 111.938 94.2187 111.938 101.25C111.938 107.437 110.836 112.547 108.633 116.578C106.477 120.609 103.617 123.797 100.055 126.141C96.5391 128.484 92.7188 130.219 88.5938 131.344V132.75C93 133.031 97.4297 134.578 101.883 137.391C106.336 140.203 110.063 144.234 113.063 149.484C116.063 154.734 117.562 161.156 117.562 168.75C117.562 175.969 115.922 182.461 112.641 188.227C109.359 193.992 104.18 198.562 97.1016 201.937C90.0234 205.312 80.8125 207 69.4688 207H17.4375ZM34.875 191.531H69.4688C80.8594 191.531 88.9453 189.328 93.7266 184.922C98.5547 180.469 100.969 175.078 100.969 168.75C100.969 163.875 99.7266 159.375 97.2422 155.25C94.7578 151.078 91.2188 147.75 86.625 145.266C82.0313 142.734 76.5938 141.469 70.3125 141.469H34.875V191.531ZM34.875 126.281H67.2188C72.4688 126.281 77.2031 125.25 81.4219 123.187C85.6875 121.125 89.0625 118.219 91.5469 114.469C94.0781 110.719 95.3438 106.312 95.3438 101.25C95.3438 94.9219 93.1406 89.5547 88.7344 85.1484C84.3281 80.6953 77.3438 78.4687 67.7813 78.4687H34.875V126.281ZM252.809 207V194.344L330.434 78.4687H251.965V63H351.246V75.6562L273.621 191.531H352.09V207H252.809Z" fill="#F7C51E"/>
<path d="M17.4375 207H16.4375V208H17.4375V207ZM17.4375 63V62H16.4375V63H17.4375ZM92.6016 68.2031L92.1316 69.0858L92.1366 69.0885L92.6016 68.2031ZM107.156 82.0547L106.279 82.5355L106.281 82.5385L107.156 82.0547ZM108.633 116.578L107.755 116.099L107.751 116.106L108.633 116.578ZM100.055 126.141L99.5051 125.305L99.5 125.309L100.055 126.141ZM88.5938 131.344L88.3306 130.379L87.5938 130.58V131.344H88.5938ZM88.5938 132.75H87.5938V133.688L88.5301 133.748L88.5938 132.75ZM101.883 137.391L101.349 138.236L101.349 138.236L101.883 137.391ZM112.641 188.227L113.51 188.721L113.51 188.721L112.641 188.227ZM97.1016 201.937L96.6712 201.035L96.6712 201.035L97.1016 201.937ZM34.875 191.531H33.875V192.531H34.875V191.531ZM93.7266 184.922L94.4042 185.657L94.4046 185.657L93.7266 184.922ZM97.2422 155.25L96.383 155.762L96.3856 155.766L97.2422 155.25ZM86.625 145.266L86.1424 146.141L86.1493 146.145L86.625 145.266ZM34.875 141.469V140.469H33.875V141.469H34.875ZM34.875 126.281H33.875V127.281H34.875V126.281ZM81.4219 123.187L80.9866 122.287L80.9827 122.289L81.4219 123.187ZM91.5469 114.469L90.718 113.909L90.7132 113.916L91.5469 114.469ZM88.7344 85.1484L88.0235 85.8518L88.0273 85.8555L88.7344 85.1484ZM34.875 78.4687V77.4687H33.875V78.4687H34.875ZM18.4375 207V63H16.4375V207H18.4375ZM17.4375 64H67.7813V62H17.4375V64ZM67.7813 64C77.7047 64 85.8032 65.7167 92.1316 69.0858L93.0715 67.3204C86.3687 63.752 77.9203 62 67.7813 62V64ZM92.1366 69.0885C98.4981 72.4294 103.197 76.9141 106.279 82.5355L108.033 81.5739C104.741 75.5702 99.7363 70.8206 93.0665 67.3178L92.1366 69.0885ZM106.281 82.5385C109.381 88.1461 110.938 94.3762 110.938 101.25H112.938C112.938 94.0612 111.306 87.4945 108.031 81.5709L106.281 82.5385ZM110.938 101.25C110.938 107.326 109.855 112.257 107.755 116.099L109.51 117.058C111.817 112.837 112.938 107.549 112.938 101.25H110.938ZM107.751 116.106C105.668 120.002 102.918 123.06 99.5051 125.305L100.604 126.976C104.316 124.534 107.286 121.217 109.515 117.05L107.751 116.106ZM99.5 125.309C96.0749 127.592 92.3532 129.282 88.3306 130.379L88.8569 132.309C93.0843 131.156 97.0033 129.377 100.609 126.973L99.5 125.309ZM87.5938 131.344V132.75H89.5938V131.344H87.5938ZM88.5301 133.748C92.7398 134.017 97.01 135.496 101.349 138.236L102.417 136.545C97.8494 133.66 93.2602 132.046 88.6575 131.752L88.5301 133.748ZM101.349 138.236C105.644 140.949 109.263 144.851 112.194 149.981L113.931 148.988C110.862 143.617 107.028 139.457 102.417 136.545L101.349 138.236ZM112.194 149.981C115.088 155.045 116.562 161.286 116.562 168.75H118.562C118.562 161.026 117.037 154.423 113.931 148.988L112.194 149.981ZM116.562 168.75C116.562 175.811 114.96 182.13 111.772 187.732L113.51 188.721C116.884 182.792 118.562 176.126 118.562 168.75H116.562ZM111.772 187.732C108.609 193.289 103.599 197.731 96.6712 201.035L97.532 202.84C104.76 199.394 110.11 194.695 113.51 188.721L111.772 187.732ZM96.6712 201.035C89.7737 204.324 80.7251 206 69.4688 206V208C80.8999 208 90.2731 206.301 97.532 202.84L96.6712 201.035ZM69.4688 206H17.4375V208H69.4688V206ZM34.875 192.531H69.4688V190.531H34.875V192.531ZM69.4688 192.531C80.9379 192.531 89.3419 190.323 94.4042 185.657L93.0489 184.187C88.5488 188.334 80.7808 190.531 69.4688 190.531V192.531ZM94.4046 185.657C99.4291 181.023 101.969 175.369 101.969 168.75H99.9688C99.9688 174.787 97.6803 179.915 93.0486 184.187L94.4046 185.657ZM101.969 168.75C101.969 163.696 100.678 159.017 98.0988 154.734L96.3856 155.766C98.7749 159.733 99.9688 164.054 99.9688 168.75H101.969ZM98.1014 154.738C95.5177 150.4 91.8407 146.949 87.1007 144.386L86.1493 146.145C90.5968 148.551 93.9979 151.756 96.383 155.762L98.1014 154.738ZM87.1076 144.39C82.3394 141.762 76.7293 140.469 70.3125 140.469V142.469C76.4583 142.469 81.7231 143.706 86.1424 146.141L87.1076 144.39ZM70.3125 140.469H34.875V142.469H70.3125V140.469ZM33.875 141.469V191.531H35.875V141.469H33.875ZM34.875 127.281H67.2188V125.281H34.875V127.281ZM67.2188 127.281C72.6029 127.281 77.4902 126.223 81.8611 124.086L80.9827 122.289C76.9161 124.277 72.3347 125.281 67.2188 125.281V127.281ZM81.8572 124.088C86.2754 121.951 89.7916 118.929 92.3805 115.021L90.7132 113.916C88.3334 117.509 85.0996 120.299 80.9866 122.287L81.8572 124.088ZM92.3757 115.028C95.0315 111.094 96.3438 106.487 96.3438 101.25H94.3438C94.3438 106.138 93.1247 110.344 90.718 113.909L92.3757 115.028ZM96.3438 101.25C96.3438 94.6613 94.0385 89.0384 89.4415 84.4413L88.0273 85.8555C92.2427 90.071 94.3438 95.1825 94.3438 101.25H96.3438ZM89.4452 84.4451C84.7723 79.7224 77.4726 77.4687 67.7813 77.4687V79.4687C77.2149 79.4687 83.884 81.6682 88.0235 85.8518L89.4452 84.4451ZM67.7813 77.4687H34.875V79.4687H67.7813V77.4687ZM33.875 78.4687V126.281H35.875V78.4687H33.875ZM252.809 207H251.809V208H252.809V207ZM252.809 194.344L251.978 193.787L251.809 194.04V194.344H252.809ZM330.434 78.4687L331.264 79.0253L332.307 77.4687H330.434V78.4687ZM251.965 78.4687H250.965V79.4687H251.965V78.4687ZM251.965 63V62H250.965V63H251.965ZM351.246 63H352.246V62H351.246V63ZM351.246 75.6562L352.077 76.2128L352.246 75.9602V75.6562H351.246ZM273.621 191.531L272.79 190.975L271.748 192.531H273.621V191.531ZM352.09 191.531H353.09V190.531H352.09V191.531ZM352.09 207V208H353.09V207H352.09ZM253.809 207V194.344H251.809V207H253.809ZM253.639 194.9L331.264 79.0253L329.603 77.9122L251.978 193.787L253.639 194.9ZM330.434 77.4687H251.965V79.4687H330.434V77.4687ZM252.965 78.4687V63H250.965V78.4687H252.965ZM251.965 64H351.246V62H251.965V64ZM350.246 63V75.6562H352.246V63H350.246ZM350.415 75.0997L272.79 190.975L274.452 192.088L352.077 76.2128L350.415 75.0997ZM273.621 192.531H352.09V190.531H273.621V192.531ZM351.09 191.531V207H353.09V191.531H351.09ZM352.09 206H252.809V208H352.09V206Z" fill="black"/>
<defs>
<clipPath id="clip0_310_19">
<rect width="89.112" height="72.6263" fill="white" transform="translate(160.116) rotate(14.4445)"/>
</clipPath>
</defs>
</svg>
